<svg xmlns="http://www.w3.org/2000/svg" width="1080" height="1920" viewBox="0 0 1080 1920">
<defs><linearGradient id="bg" x1="0" y1="0" x2="1" y2="1"><stop offset="0" stop-color="#0f0b12"/><stop offset="1" stop-color="#452050"/></linearGradient><filter id="shadow"><feDropShadow dx="0" dy="20" stdDeviation="22" flood-color="#000" flood-opacity="0.45"/></filter></defs>
<rect width="1080" height="1920" fill="url(#bg)"/>
<circle cx="855" cy="245" r="275" fill="#d0a2ff" opacity="0.13"/><circle cx="110" cy="1530" r="360" fill="#fff" opacity="0.06"/>
<rect x="72" y="96" width="936" height="1728" rx="78" fill="rgba(0,0,0,0.22)" stroke="rgba(255,255,255,0.19)" stroke-width="4" filter="url(#shadow)"/>
<text x="540" y="260" text-anchor="middle" fill="#fff" font-size="84" font-family="DejaVu Sans, Arial" font-weight="900">THE CHARGE</text>
<text x="540" y="360" text-anchor="middle" fill="#d0a2ff" font-size="90" font-family="DejaVu Sans, Arial" font-weight="900">DID NOT VANISH</text>
<rect x="166" y="590" width="748" height="460" rx="62" fill="rgba(255,255,255,0.09)" stroke="#d0a2ff" stroke-width="6"/>
<path d="M240 910 C360 690 480 1000 600 810 C725 625 810 845 870 700" stroke="#d0a2ff" stroke-width="13" fill="none"/>
<circle cx="240" cy="910" r="30" fill="#fff" opacity="0.8"/>
<circle cx="390" cy="820" r="30" fill="#fff" opacity="0.7"/>
<circle cx="540" cy="730" r="30" fill="#fff" opacity="0.6"/>
<circle cx="690" cy="910" r="30" fill="#fff" opacity="0.5"/>
<circle cx="840" cy="820" r="30" fill="#fff" opacity="0.4"/>
<text x="540" y="1175" text-anchor="middle" fill="#fff" font-size="42" font-family="DejaVu Sans, Arial" font-weight="900">TEMPERATURE CHANGES</text><text x="540" y="1238" text-anchor="middle" fill="#d0a2ff" font-size="64" font-family="DejaVu Sans, Arial" font-weight="900">PERFORMANCE</text>
<path d="M190 1495 H890" stroke="rgba(255,255,255,0.28)" stroke-width="6" stroke-linecap="round"/>
</svg>