<?xml version="1.0" encoding="UTF-8"?>
<svg xmlns="http://www.w3.org/2000/svg" width="1080" height="960" viewBox="0 0 1080 960">
  <defs>
    <linearGradient id="bg" x1="0" y1="0" x2="0" y2="1">
      <stop offset="0%" stop-color="#0d111a" />
      <stop offset="100%" stop-color="#151b27" />
    </linearGradient>
    <linearGradient id="glass" x1="0" y1="0" x2="1" y2="1">
      <stop offset="0%" stop-color="rgba(255,255,255,0.14)" />
      <stop offset="100%" stop-color="rgba(255,255,255,0.06)" />
    </linearGradient>
  </defs>
  <rect width="1080" height="960" fill="url(#bg)" />
  <circle cx="968" cy="88" r="180" fill="rgba(36,116,255,0.18)" />
  <circle cx="110" cy="870" r="160" fill="rgba(255,115,86,0.12)" />
  <rect x="34" y="34" width="1012" height="892" rx="46" fill="rgba(10,14,22,0.78)" stroke="rgba(255,255,255,0.12)" />
  <text x="98" y="104" font-family="Inter, Arial, sans-serif" font-size="28" font-weight="700" fill="#f6f8fc">12:21</text>
  <rect x="418" y="88" width="244" height="16" rx="8" fill="rgba(255,255,255,0.9)" />
  <g transform="translate(0, -45) scale(1.02)">
    <text x="540" y="138" text-anchor="middle" font-family="Inter, Arial, sans-serif" font-size="36" font-weight="800" fill="#f7f9fc">Liam</text>
    <text x="540" y="172" text-anchor="middle" font-family="Inter, Arial, sans-serif" font-size="24" font-weight="600" fill="#9aa4b7">12:21 AM</text>
    
    <g>
      <rect x="575" y="190" width="431" height="128" rx="32" fill="#2374ff" />
      <text x="603" y="228" font-family="Inter, Arial, sans-serif" font-size="30" font-weight="700" fill="#ffffff">does she ever check</text>
<text x="603" y="266" font-family="Inter, Arial, sans-serif" font-size="30" font-weight="700" fill="#ffffff">your phone?</text>
    </g>
  

    <g>
      <rect x="575" y="342" width="431" height="90" rx="32" fill="#2374ff" />
      <text x="603" y="380" font-family="Inter, Arial, sans-serif" font-size="30" font-weight="700" fill="#ffffff">so that&apos;s fake too?</text>
    </g>
  

    <g>
      <rect x="74" y="456" width="150" height="64" rx="32" fill="#edf0f6" />
      
      <circle cx="118" cy="488" r="8" fill="#d7dbe6" />
      <circle cx="146" cy="488" r="8" fill="#c7ccda" />
      <circle cx="174" cy="488" r="8" fill="#d7dbe6" />
    
    </g>
  
  </g>
  <text x="540" y="912" text-anchor="middle" font-family="Inter, Arial, sans-serif" font-size="24" font-weight="700" fill="#8d97ab">…</text>
</svg>