<?xml version="1.0" encoding="UTF-8"?>
<svg xmlns="http://www.w3.org/2000/svg" width="1080" height="960" viewBox="0 0 1080 960">
  <defs>
    <linearGradient id="bg" x1="0" y1="0" x2="0" y2="1">
      <stop offset="0%" stop-color="#0d111a" />
      <stop offset="100%" stop-color="#151b27" />
    </linearGradient>
    <linearGradient id="glass" x1="0" y1="0" x2="1" y2="1">
      <stop offset="0%" stop-color="rgba(255,255,255,0.14)" />
      <stop offset="100%" stop-color="rgba(255,255,255,0.06)" />
    </linearGradient>
  </defs>
  <rect width="1080" height="960" fill="url(#bg)" />
  <circle cx="968" cy="88" r="180" fill="rgba(36,116,255,0.18)" />
  <circle cx="110" cy="870" r="160" fill="rgba(255,115,86,0.12)" />
  <rect x="34" y="34" width="1012" height="892" rx="46" fill="rgba(10,14,22,0.78)" stroke="rgba(255,255,255,0.12)" />
  <text x="98" y="104" font-family="Inter, Arial, sans-serif" font-size="28" font-weight="700" fill="#f6f8fc">12:23</text>
  <rect x="418" y="88" width="244" height="16" rx="8" fill="rgba(255,255,255,0.9)" />
  <g transform="translate(0, 10) scale(0.96)">
    <text x="540" y="138" text-anchor="middle" font-family="Inter, Arial, sans-serif" font-size="36" font-weight="800" fill="#f7f9fc">Maya</text>
    <text x="540" y="172" text-anchor="middle" font-family="Inter, Arial, sans-serif" font-size="24" font-weight="600" fill="#9aa4b7">12:19 AM</text>
    
    <g>
      <rect x="74" y="190" width="488" height="90" rx="32" fill="#edf0f6" />
      <text x="102" y="228" font-family="Inter, Arial, sans-serif" font-size="30" font-weight="700" fill="#11151e">here&apos;s the full thread</text>
    </g>
  

    <g>
      <rect x="338" y="304" width="404" height="90" rx="26" fill="#23262f" />
      <text x="366" y="342" font-family="Inter, Arial, sans-serif" font-size="30" font-weight="700" fill="#f5f7fb">Earlier messages</text>
    </g>
  

    <g>
      <rect x="74" y="418" width="260" height="90" rx="32" fill="#edf0f6" />
      <text x="102" y="456" font-family="Inter, Arial, sans-serif" font-size="30" font-weight="700" fill="#11151e">you awake?</text>
    </g>
  

    <g>
      <rect x="74" y="532" width="469" height="128" rx="32" fill="#edf0f6" />
      <text x="102" y="570" font-family="Inter, Arial, sans-serif" font-size="30" font-weight="700" fill="#11151e">don&apos;t say anything in</text>
<text x="102" y="608" font-family="Inter, Arial, sans-serif" font-size="30" font-weight="700" fill="#11151e">the gc</text>
    </g>
  

    <g>
      <rect x="74" y="684" width="431" height="128" rx="32" fill="#edf0f6" />
      <text x="102" y="722" font-family="Inter, Arial, sans-serif" font-size="30" font-weight="700" fill="#11151e">does she ever check</text>
<text x="102" y="760" font-family="Inter, Arial, sans-serif" font-size="30" font-weight="700" fill="#11151e">your phone?</text>
    </g>
  
  </g>
  <text x="540" y="912" text-anchor="middle" font-family="Inter, Arial, sans-serif" font-size="24" font-weight="700" fill="#8d97ab">Screenshot 2 of 2</text>
</svg>