<?xml version="1.0" encoding="UTF-8"?>
<svg xmlns="http://www.w3.org/2000/svg" width="1080" height="864" viewBox="0 0 1080 864">
  <defs>
    <linearGradient id="bg" x1="0" y1="0" x2="1" y2="1">
      <stop offset="0%" stop-color="#101317"/>
      <stop offset="100%" stop-color="#181B20"/>
    </linearGradient>
    <linearGradient id="glow" x1="0" y1="0" x2="1" y2="1">
      <stop offset="0%" stop-color="#FF6A3D" stop-opacity="0.22"/>
      <stop offset="100%" stop-color="#FF4500" stop-opacity="0"/>
    </linearGradient>
    <filter id="shadow" x="-20%" y="-20%" width="140%" height="140%">
      <feDropShadow dx="0" dy="20" stdDeviation="28" flood-color="#000000" flood-opacity="0.35"/>
    </filter>
  </defs>
  <rect width="1080" height="864" fill="url(#bg)"/>
  <rect x="44" y="44" width="992" height="776" rx="34" fill="url(#glow)" opacity="0.7"/>
  <g filter="url(#shadow)">
    <rect x="52" y="58" width="976" height="744" rx="34" fill="#1A1A1B" stroke="#343536" stroke-width="2"/>
  </g>
  <circle cx="122" cy="126" r="28" fill="#FF4500"/>
  <text x="122" y="136" text-anchor="middle" font-family="Inter, Arial, sans-serif" font-size="34" font-weight="900" fill="#FFFFFF">r</text>
  <text x="164" y="116" font-family="Inter, Arial, sans-serif" font-size="30" font-weight="800" fill="#FFFFFF">r/AmItheAsshole</text>
  <text x="164" y="152" font-family="Inter, Arial, sans-serif" font-size="22" font-weight="600" fill="#818384">u/throwra_wireframe • 7 hr. ago</text>
  <rect x="790" y="96" width="136" height="46" rx="23" fill="#14AE5C" /><text x="814" y="127" font-family="Inter, Arial, sans-serif" font-size="20" font-weight="800" fill="#08140D">AFTERMATH</text>
  
  <text x="96" y="320" font-family="Inter, Arial, sans-serif" font-size="42" font-weight="800" fill="#D7DADC"><tspan x="96" dy="0">I think I forced the lie to end</tspan><tspan x="96" dy="56">before it wrecked his finances.</tspan></text>
  <line x1="96" y1="762" x2="880" y2="762" stroke="#2A3236" stroke-width="2"/>
  <polygon points="102,820 126,784 150,820" fill="#FF4500"/>
  <polygon points="102,866 126,902 150,866" fill="#818384"/>
  <text x="176" y="848" font-family="Inter, Arial, sans-serif" font-size="30" font-weight="800" fill="#FFFFFF">18.4k</text>
  <text x="324" y="848" font-family="Inter, Arial, sans-serif" font-size="28" font-weight="700" fill="#818384">2.1k comments</text>
  <text x="820" y="848" font-family="Inter, Arial, sans-serif" font-size="24" font-weight="700" fill="#818384">Share</text>
</svg>