<svg xmlns="http://www.w3.org/2000/svg" width="1080" height="1920" viewBox="0 0 1080 1920">
  <defs>
    <filter id="shadow" x="-20%" y="-20%" width="140%" height="140%">
      <feDropShadow dx="0" dy="24" stdDeviation="24" flood-color="#020617" flood-opacity="0.42"/>
    </filter>
  </defs>
  <rect x="72" y="90" width="340" height="64" rx="32" fill="#16A34A" />
  <text x="110" y="131" fill="#DCFCE7" font-size="32" font-family="DejaVu Sans" font-weight="700">MANAGER VIEW</text>
  <text x="72" y="246" fill="#F8FAFC" font-size="74" font-family="DejaVu Sans" font-weight="800">One clean summary</text>
  <text x="72" y="316" fill="#CBD5E1" font-size="34" font-family="DejaVu Sans">The rep gets time back and the manager gets consistency.</text>
  <g filter="url(#shadow)">
    <rect x="72" y="456" width="936" height="900" rx="56" fill="#0F172A" fill-opacity="0.9"/>
    <rect x="120" y="546" width="530" height="690" rx="40" fill="#F8FAFC"/>
    <rect x="686" y="546" width="274" height="220" rx="32" fill="#111827"/>
    <rect x="686" y="798" width="274" height="220" rx="32" fill="#111827"/>
    <rect x="686" y="1050" width="274" height="186" rx="32" fill="#111827"/>
    <text x="160" y="618" fill="#0F172A" font-size="34" font-family="DejaVu Sans" font-weight="700">Deal recap</text>
    <text x="160" y="682" fill="#334155" font-size="28" font-family="DejaVu Sans">Champion: RevOps lead</text>
    <text x="160" y="732" fill="#334155" font-size="28" font-family="DejaVu Sans">Risk: security review timing</text>
    <text x="160" y="782" fill="#334155" font-size="28" font-family="DejaVu Sans">Commitment: pricing recap by Friday</text>
    <text x="160" y="832" fill="#334155" font-size="28" font-family="DejaVu Sans">Owner: Jordan Lee</text>
    <rect x="160" y="896" width="450" height="220" rx="28" fill="#F1F5F9"/>
    <text x="188" y="958" fill="#0F172A" font-size="28" font-family="DejaVu Sans" font-weight="700">Handoff quality</text>
    <text x="188" y="1010" fill="#334155" font-size="26" font-family="DejaVu Sans">Everyone sees the same next step, timing, and risk.</text>
    <text x="720" y="620" fill="#86EFAC" font-size="26" font-family="DejaVu Sans" font-weight="700">REP TIME SAVED</text>
    <text x="720" y="708" fill="#F8FAFC" font-size="68" font-family="DejaVu Sans" font-weight="800">14 min</text>
    <text x="720" y="872" fill="#93C5FD" font-size="26" font-family="DejaVu Sans" font-weight="700">SUMMARY READY</text>
    <text x="720" y="960" fill="#F8FAFC" font-size="68" font-family="DejaVu Sans" font-weight="800">2 taps</text>
    <text x="720" y="1120" fill="#FDE68A" font-size="26" font-family="DejaVu Sans" font-weight="700">HANDOFF STATUS</text>
    <text x="720" y="1188" fill="#F8FAFC" font-size="54" font-family="DejaVu Sans" font-weight="800">Clean</text>
  </g>
</svg>

