<?xml version="1.0" encoding="UTF-8"?>
<svg xmlns="http://www.w3.org/2000/svg" width="1080" height="1920" viewBox="0 0 1080 1920">
<defs>
  <linearGradient id="bg" x1="0" y1="0" x2="1" y2="1">
    <stop offset="0" stop-color="#08131f"/>
    <stop offset=".48" stop-color="#11100d"/>
    <stop offset="1" stop-color="#050608"/>
  </linearGradient>
  
  <filter id="grain">
    <feTurbulence type="fractalNoise" baseFrequency="0.9" numOctaves="2" stitchTiles="stitch"/>
    <feColorMatrix type="saturate" values="0"/>
    <feComponentTransfer><feFuncA type="table" tableValues="0 0.08"/></feComponentTransfer>
  </filter>
</defs>
<rect width="1080" height="1920" fill="url(#bg)"/>
<rect x="0" y="0" width="1080" height="1920" filter="url(#grain)" opacity=".6"/>
<rect x="42" y="42" width="996" height="1700" rx="32" fill="none" stroke="#ff6b7a" stroke-width="3" opacity=".78"/>
<rect x="76" y="72" width="928" height="68" rx="16" fill="#050608" stroke="#ff6b7a" stroke-width="2"/>
<text x="540" y="118" text-anchor="middle" font-size="28" font-weight="800" fill="#ff6b7a" letter-spacing="2">THE RECEIPT</text>
<text x="92" y="304" font-size="70" font-weight="900" fill="#fff7df" letter-spacing="-2">PAID IN PAIN</text>

      <g transform="translate(250 530) rotate(-5 290 360)">
        <rect width="580" height="760" rx="18" fill="#fff7df"/>
        <text x="76" y="98" font-size="50" font-weight="800" fill="#19140e">RENTAL RECEIPT</text>
        <text x="82" y="190" font-size="32" font-weight="800" fill="#19140e">MOVIE RENTAL</text><line x1="82" x2="500" y1="214" y2="214" stroke="#19140e" opacity=".28"/><text x="82" y="276" font-size="32" font-weight="800" fill="#19140e">DUE DATE</text><line x1="82" x2="500" y1="300" y2="300" stroke="#19140e" opacity=".28"/><text x="82" y="362" font-size="32" font-weight="800" fill="#19140e">LATE FEE</text><line x1="82" x2="500" y1="386" y2="386" stroke="#19140e" opacity=".28"/>
        <rect x="82" y="470" width="420" height="118" rx="8" fill="#ff6b7a"/>
        <text x="122" y="546" font-size="48" font-weight="800" fill="#fff7df">PAID IN PAIN</text>
      </g>
<text x="92" y="1215" font-size="34" font-weight="800" fill="#ff6b7a" letter-spacing="1">FRAME 05</text>
<text x="92" y="1266" font-size="30" font-weight="700" fill="#fff7df" opacity=".74">The customer pain point was also the profit center.</text>
<text x="92" y="1718" font-size="22" font-weight="800" fill="#fff7df" opacity=".48">MICRO-DOC BREAKDOWN</text>
<text x="802" y="1718" font-size="22" font-weight="800" fill="#fff7df" opacity=".48">ARCHIVE CUT</text>
</svg>