<?xml version="1.0" encoding="UTF-8"?>
<svg xmlns="http://www.w3.org/2000/svg" width="1080" height="1920" viewBox="0 0 1080 1920">
<defs>
  <linearGradient id="bg" x1="0" y1="0" x2="1" y2="1">
    <stop offset="0" stop-color="#08131f"/>
    <stop offset=".48" stop-color="#11100d"/>
    <stop offset="1" stop-color="#050608"/>
  </linearGradient>
  
  <filter id="grain">
    <feTurbulence type="fractalNoise" baseFrequency="0.9" numOctaves="2" stitchTiles="stitch"/>
    <feColorMatrix type="saturate" values="0"/>
    <feComponentTransfer><feFuncA type="table" tableValues="0 0.08"/></feComponentTransfer>
  </filter>
</defs>
<rect width="1080" height="1920" fill="url(#bg)"/>
<rect x="0" y="0" width="1080" height="1920" filter="url(#grain)" opacity=".6"/>
<rect x="42" y="42" width="996" height="1700" rx="32" fill="none" stroke="#8bd3ff" stroke-width="3" opacity=".78"/>
<rect x="76" y="72" width="928" height="68" rx="16" fill="#050608" stroke="#8bd3ff" stroke-width="2"/>
<text x="540" y="118" text-anchor="middle" font-size="28" font-weight="800" fill="#8bd3ff" letter-spacing="2">THE LOAD</text>
<text x="92" y="304" font-size="70" font-weight="900" fill="#fff7df" letter-spacing="-2">DEBT + STORES</text>
<text x="92" y="379.6" font-size="70" font-weight="900" fill="#fff7df" letter-spacing="-2">MET DIGITAL</text>

      <g transform="translate(120 590)">
        <rect width="840" height="560" rx="26" fill="#102630" stroke="#bde9ff" stroke-width="3" opacity=".92"/>
        <circle cx="80" cy="90" r="10" fill="#8bd3ff" opacity=".42"/><circle cx="139" cy="203" r="7" fill="#e8f6ff" opacity=".75"/><circle cx="198" cy="316" r="7" fill="#e8f6ff" opacity=".75"/><circle cx="257" cy="429" r="7" fill="#8bd3ff" opacity=".75"/><circle cx="316" cy="182" r="10" fill="#e8f6ff" opacity=".75"/><circle cx="375" cy="295" r="7" fill="#e8f6ff" opacity=".42"/><circle cx="434" cy="408" r="7" fill="#8bd3ff" opacity=".75"/><circle cx="493" cy="161" r="7" fill="#e8f6ff" opacity=".75"/><circle cx="552" cy="274" r="10" fill="#e8f6ff" opacity=".75"/><circle cx="611" cy="387" r="7" fill="#8bd3ff" opacity=".75"/><circle cx="670" cy="140" r="7" fill="#e8f6ff" opacity=".42"/><circle cx="729" cy="253" r="7" fill="#e8f6ff" opacity=".75"/><circle cx="98" cy="366" r="10" fill="#8bd3ff" opacity=".75"/><circle cx="157" cy="119" r="7" fill="#e8f6ff" opacity=".75"/><circle cx="216" cy="232" r="7" fill="#e8f6ff" opacity=".75"/><circle cx="275" cy="345" r="7" fill="#8bd3ff" opacity=".42"/><circle cx="334" cy="98" r="10" fill="#e8f6ff" opacity=".75"/><circle cx="393" cy="211" r="7" fill="#e8f6ff" opacity=".75"/><circle cx="452" cy="324" r="7" fill="#8bd3ff" opacity=".75"/><circle cx="511" cy="437" r="7" fill="#e8f6ff" opacity=".75"/><circle cx="570" cy="190" r="10" fill="#e8f6ff" opacity=".42"/><circle cx="629" cy="303" r="7" fill="#8bd3ff" opacity=".75"/><circle cx="688" cy="416" r="7" fill="#e8f6ff" opacity=".75"/><circle cx="747" cy="169" r="7" fill="#e8f6ff" opacity=".75"/><circle cx="116" cy="282" r="10" fill="#8bd3ff" opacity=".75"/><circle cx="175" cy="395" r="7" fill="#e8f6ff" opacity=".42"/><circle cx="234" cy="148" r="7" fill="#e8f6ff" opacity=".75"/><circle cx="293" cy="261" r="7" fill="#8bd3ff" opacity=".75"/><circle cx="352" cy="374" r="10" fill="#e8f6ff" opacity=".75"/><circle cx="411" cy="127" r="7" fill="#e8f6ff" opacity=".75"/><circle cx="470" cy="240" r="7" fill="#8bd3ff" opacity=".42"/><circle cx="529" cy="353" r="7" fill="#e8f6ff" opacity=".75"/><circle cx="588" cy="106" r="10" fill="#e8f6ff" opacity=".75"/><circle cx="647" cy="219" r="7" fill="#8bd3ff" opacity=".75"/>
        <path d="M70 420 C240 340 350 500 500 380 C630 280 730 330 790 240" fill="none" stroke="#fff7df" stroke-width="8" opacity=".85"/>
      </g>
<text x="92" y="1215" font-size="34" font-weight="800" fill="#8bd3ff" letter-spacing="1">FRAME 10</text>
<text x="92" y="1266" font-size="30" font-weight="700" fill="#fff7df" opacity=".74">Thousands of stores turned into weight.</text>
<text x="92" y="1718" font-size="22" font-weight="800" fill="#fff7df" opacity=".48">MICRO-DOC BREAKDOWN</text>
<text x="802" y="1718" font-size="22" font-weight="800" fill="#fff7df" opacity=".48">ARCHIVE CUT</text>
</svg>